<svg width="20" height="20" viewBox="0 0 20 20" fill="none" xmlns="http://www.w3.org/2000/svg">
<path d="M10 7.49984C9.33696 7.49984 8.70107 7.76323 8.23223 8.23207C7.76339 8.70091 7.5 9.3368 7.5 9.99984C7.5 10.6629 7.76339 11.2988 8.23223 11.7676C8.70107 12.2364 9.33696 12.4998 10 12.4998C10.663 12.4998 11.2989 12.2364 11.7678 11.7676C12.2366 11.2988 12.5 10.6629 12.5 9.99984C12.5 9.3368 12.2366 8.70091 11.7678 8.23207C11.2989 7.76323 10.663 7.49984 10 7.49984ZM10 5.83317C11.1051 5.83317 12.1649 6.27216 12.9463 7.05356C13.7277 7.83496 14.1667 8.89477 14.1667 9.99984C14.1667 11.1049 13.7277 12.1647 12.9463 12.9461C12.1649 13.7275 11.1051 14.1665 10 14.1665C8.89493 14.1665 7.83512 13.7275 7.05372 12.9461C6.27232 12.1647 5.83333 11.1049 5.83333 9.99984C5.83333 8.89477 6.27232 7.83496 7.05372 7.05356C7.83512 6.27216 8.89493 5.83317 10 5.83317ZM15.4167 5.62484C15.4167 5.9011 15.3069 6.16606 15.1116 6.36141C14.9162 6.55676 14.6513 6.6665 14.375 6.6665C14.0987 6.6665 13.8338 6.55676 13.6384 6.36141C13.4431 6.16606 13.3333 5.9011 13.3333 5.62484C13.3333 5.34857 13.4431 5.08362 13.6384 4.88827C13.8338 4.69292 14.0987 4.58317 14.375 4.58317C14.6513 4.58317 14.9162 4.69292 15.1116 4.88827C15.3069 5.08362 15.4167 5.34857 15.4167 5.62484ZM10 3.33317C7.93833 3.33317 7.60166 3.339 6.6425 3.3815C5.98916 3.41234 5.55083 3.49984 5.14416 3.65817C4.7825 3.79817 4.52166 3.96567 4.24416 4.244C3.98334 4.496 3.78279 4.80366 3.6575 5.144C3.49916 5.55234 3.41166 5.98984 3.38166 6.64234C3.33833 7.56234 3.33333 7.884 3.33333 9.99984C3.33333 12.0615 3.33916 12.3982 3.38166 13.3573C3.4125 14.0098 3.5 14.449 3.6575 14.8548C3.79916 15.2173 3.96583 15.4782 4.2425 15.7548C4.52333 16.0348 4.78416 16.2023 5.1425 16.3407C5.55416 16.4998 5.9925 16.5882 6.6425 16.6182C7.5625 16.6615 7.88416 16.6665 10 16.6665C12.0617 16.6665 12.3983 16.6607 13.3575 16.6182C14.0092 16.5873 14.4483 16.4998 14.855 16.3423C15.2158 16.2015 15.4783 16.034 15.755 15.7573C16.0358 15.4765 16.2033 15.2157 16.3417 14.8573C16.5 14.4465 16.5883 14.0073 16.6183 13.3573C16.6617 12.4373 16.6667 12.1157 16.6667 9.99984C16.6667 7.93817 16.6608 7.6015 16.6183 6.64234C16.5875 5.99067 16.5 5.55067 16.3417 5.144C16.2161 4.80401 16.0159 4.49647 15.7558 4.244C15.5039 3.98304 15.1963 3.78248 14.8558 3.65734C14.4475 3.499 14.0092 3.4115 13.3575 3.3815C12.4375 3.33817 12.1158 3.33317 10 3.33317ZM10 1.6665C12.2642 1.6665 12.5467 1.67484 13.435 1.7165C14.3225 1.75817 14.9267 1.89734 15.4583 2.104C16.0083 2.31567 16.4717 2.60234 16.935 3.06484C17.3587 3.48142 17.6866 3.98533 17.8958 4.5415C18.1017 5.07234 18.2417 5.67734 18.2833 6.56484C18.3225 7.45317 18.3333 7.73567 18.3333 9.99984C18.3333 12.264 18.325 12.5465 18.2833 13.4348C18.2417 14.3223 18.1017 14.9265 17.8958 15.4582C17.6872 16.0147 17.3593 16.5187 16.935 16.9348C16.5183 17.3584 16.0144 17.6863 15.4583 17.8957C14.9275 18.1015 14.3225 18.2415 13.435 18.2832C12.5467 18.3223 12.2642 18.3332 10 18.3332C7.73583 18.3332 7.45333 18.3248 6.565 18.2832C5.6775 18.2415 5.07333 18.1015 4.54166 17.8957C3.98527 17.6869 3.48127 17.359 3.065 16.9348C2.64117 16.5183 2.31327 16.0144 2.10416 15.4582C1.8975 14.9273 1.75833 14.3223 1.71666 13.4348C1.6775 12.5465 1.66666 12.264 1.66666 9.99984C1.66666 7.73567 1.675 7.45317 1.71666 6.56484C1.75833 5.6765 1.8975 5.07317 2.10416 4.5415C2.31269 3.98499 2.64067 3.48094 3.065 3.06484C3.48139 2.64086 3.98535 2.31295 4.54166 2.104C5.07333 1.89734 5.67666 1.75817 6.565 1.7165C7.45333 1.67734 7.73583 1.6665 10 1.6665Z" fill="#CCD2E9"/>
</svg>
