<svg width="20" height="20" viewBox="0 0 20 20" fill="none" xmlns="http://www.w3.org/2000/svg">
<path d="M10 7.95817C10.7642 7.17734 11.7592 6.6665 12.9167 6.6665C14.1322 6.6665 15.298 7.14939 16.1576 8.00893C17.0171 8.86847 17.5 10.0343 17.5 11.2498V17.4998H15.8333V11.2498C15.8333 10.4763 15.526 9.73442 14.9791 9.18744C14.4321 8.64046 13.6902 8.33317 12.9167 8.33317C12.1431 8.33317 11.4013 8.64046 10.8543 9.18744C10.3073 9.73442 10 10.4763 10 11.2498V17.4998H8.33334V7.08317H10V7.95817ZM4.16667 5.4165C3.83515 5.4165 3.51721 5.28481 3.28279 5.05039C3.04837 4.81597 2.91667 4.49802 2.91667 4.1665C2.91667 3.83498 3.04837 3.51704 3.28279 3.28262C3.51721 3.0482 3.83515 2.9165 4.16667 2.9165C4.49819 2.9165 4.81614 3.0482 5.05056 3.28262C5.28498 3.51704 5.41667 3.83498 5.41667 4.1665C5.41667 4.49802 5.28498 4.81597 5.05056 5.05039C4.81614 5.28481 4.49819 5.4165 4.16667 5.4165ZM3.33334 7.08317H5.00001V17.4998H3.33334V7.08317Z" fill="#CCD2E9"/>
</svg>
