<svg width="20" height="20" viewBox="0 0 20 20" fill="none" xmlns="http://www.w3.org/2000/svg">
<path d="M12.75 4.62477C12.1166 4.62466 11.5085 4.8732 11.0566 5.31691C10.6046 5.76061 10.3449 6.36402 10.3333 6.99727L10.31 8.30977C10.3086 8.38024 10.2924 8.44963 10.2623 8.51337C10.2322 8.57712 10.189 8.63379 10.1355 8.67967C10.082 8.72555 10.0194 8.75959 9.95183 8.77957C9.88423 8.79955 9.81318 8.80501 9.74333 8.7956L8.4425 8.61894C6.73083 8.3856 5.09083 7.59727 3.5175 6.28644C3.01916 9.04477 3.9925 10.9556 6.33666 12.4298L7.7925 13.3448C7.86167 13.3882 7.91914 13.448 7.95987 13.5188C8.0006 13.5896 8.02336 13.6694 8.02616 13.751C8.02895 13.8327 8.0117 13.9137 7.97591 13.9872C7.94011 14.0606 7.88687 14.1242 7.82083 14.1723L6.49416 15.1414C7.28333 15.1906 8.0325 15.1556 8.65416 15.0323C12.5858 14.2473 15.2 11.2889 15.2 6.40894C15.2 6.0106 14.3567 4.62477 12.75 4.62477ZM8.66666 6.96644C8.68121 6.16315 8.9324 5.38199 9.3888 4.72079C9.84519 4.05958 10.4865 3.5477 11.2324 3.24924C11.9784 2.95078 12.7958 2.879 13.5823 3.04289C14.3688 3.20678 15.0895 3.59906 15.6542 4.1706C16.2467 4.16644 16.7508 4.31644 17.8783 3.6331C17.5992 4.99977 17.4617 5.5931 16.8667 6.40894C16.8667 12.7773 12.9525 15.8739 8.98083 16.6664C6.2575 17.2098 2.2975 16.3173 1.1625 15.1323C1.74083 15.0873 4.09083 14.8348 5.44916 13.8406C4.3 13.0831 -0.27417 10.3914 2.73166 3.15477C4.1425 4.80227 5.57333 5.92394 7.02333 6.51894C7.98833 6.91477 8.225 6.90644 8.6675 6.96727L8.66666 6.96644Z" fill="#CCD2E9"/>
</svg>
